solid OpenSCAD_Model
  facet normal -0.707107 0.707107 0
    outer loop
      vertex 40 40 35
      vertex 40 40 0
      vertex 30 30 29
    endloop
  endfacet
  facet normal -0.707107 0.707107 0
    outer loop
      vertex 40 40 35
      vertex 30 30 29
      vertex 0 0 35
    endloop
  endfacet
  facet normal -0.707107 0.707107 0
    outer loop
      vertex 10 10 0
      vertex 0 0 35
      vertex 10 10 29
    endloop
  endfacet
  facet normal -0.707107 0.707107 0
    outer loop
      vertex 30 30 29
      vertex 10 10 29
      vertex 0 0 35
    endloop
  endfacet
  facet normal -0.707107 0.707107 0
    outer loop
      vertex 0 0 35
      vertex 10 10 0
      vertex 0 0 0
    endloop
  endfacet
  facet normal -0.707107 0.707107 0
    outer loop
      vertex 30 30 29
      vertex 40 40 0
      vertex 30 30 0
    endloop
  endfacet
  facet normal 0 -1 0
    outer loop
      vertex 0 0 35
      vertex 0 0 0
      vertex 40 0 0
    endloop
  endfacet
  facet normal 0 -1 0
    outer loop
      vertex 40 0 35
      vertex 0 0 35
      vertex 40 0 0
    endloop
  endfacet
  facet normal 0 0 -1
    outer loop
      vertex 15.309 5.95106 0
      vertex 10 10 0
      vertex 40 0 0
    endloop
  endfacet
  facet normal 0 0 -1
    outer loop
      vertex 34.191 5.58778 0
      vertex 10 10 0
      vertex 30 10 0
    endloop
  endfacet
  facet normal 0 0 -1
    outer loop
      vertex 35.309 5.95106 0
      vertex 30 10 0
      vertex 30 30 0
    endloop
  endfacet
  facet normal 0 0 -1
    outer loop
      vertex 34.191 25.5878 0
      vertex 30 30 0
      vertex 40 40 0
    endloop
  endfacet
  facet normal 0 0 -1
    outer loop
      vertex 0 0 0
      vertex 10 10 0
      vertex 14.191 5.58778 0
    endloop
  endfacet
  facet normal 0 0 -1
    outer loop
      vertex 35.309 24.0489 0
      vertex 40 0 0
      vertex 34.191 24.4122 0
    endloop
  endfacet
  facet normal 0 0 -1
    outer loop
      vertex 0 0 0
      vertex 14.191 5.58778 0
      vertex 14.191 4.41221 0
    endloop
  endfacet
  facet normal 0 0 -1
    outer loop
      vertex 0 0 0
      vertex 14.191 4.41221 0
      vertex 15.309 4.04894 0
    endloop
  endfacet
  facet normal 0 0 -1
    outer loop
      vertex 0 0 0
      vertex 15.309 4.04894 0
      vertex 40 0 0
    endloop
  endfacet
  facet normal 0 0 -1
    outer loop
      vertex 15.309 5.95106 0
      vertex 40 0 0
      vertex 16 5 0
    endloop
  endfacet
  facet normal 0 0 -1
    outer loop
      vertex 14.191 5.58778 0
      vertex 10 10 0
      vertex 15.309 5.95106 0
    endloop
  endfacet
  facet normal 0 0 -1
    outer loop
      vertex 34.191 5.58778 0
      vertex 30 10 0
      vertex 35.309 5.95106 0
    endloop
  endfacet
  facet normal 0 0 -1
    outer loop
      vertex 34.191 4.41221 0
      vertex 10 10 0
      vertex 34.191 5.58778 0
    endloop
  endfacet
  facet normal 0 0 -1
    outer loop
      vertex 36 5 0
      vertex 40 0 0
      vertex 35.309 4.04894 0
    endloop
  endfacet
  facet normal 0 0 -1
    outer loop
      vertex 40 0 0
      vertex 10 10 0
      vertex 34.191 4.41221 0
    endloop
  endfacet
  facet normal 0 0 -1
    outer loop
      vertex 40 0 0
      vertex 34.191 4.41221 0
      vertex 35.309 4.04894 0
    endloop
  endfacet
  facet normal 0 0 -1
    outer loop
      vertex 40 0 0
      vertex 36 5 0
      vertex 30 30 0
    endloop
  endfacet
  facet normal 0 0 -1
    outer loop
      vertex 36 5 0
      vertex 35.309 5.95106 0
      vertex 30 30 0
    endloop
  endfacet
  facet normal 0 0 -1
    outer loop
      vertex 34.191 24.4122 0
      vertex 30 30 0
      vertex 34.191 25.5878 0
    endloop
  endfacet
  facet normal 0 0 -1
    outer loop
      vertex 35.309 25.9511 0
      vertex 34.191 25.5878 0
      vertex 40 40 0
    endloop
  endfacet
  facet normal 0 0 -1
    outer loop
      vertex 40 0 0
      vertex 30 30 0
      vertex 34.191 24.4122 0
    endloop
  endfacet
  facet normal 0 0 -1
    outer loop
      vertex 35.309 25.9511 0
      vertex 40 40 0
      vertex 36 25 0
    endloop
  endfacet
  facet normal 0 0 -1
    outer loop
      vertex 40 0 0
      vertex 35.309 24.0489 0
      vertex 36 25 0
    endloop
  endfacet
  facet normal 0 0 -1
    outer loop
      vertex 40 0 0
      vertex 36 25 0
      vertex 40 40 0
    endloop
  endfacet
  facet normal 0 0 -1
    outer loop
      vertex 16 5 0
      vertex 40 0 0
      vertex 15.309 4.04894 0
    endloop
  endfacet
  facet normal 0 0 1
    outer loop
      vertex 14.5296 0.524651 35
      vertex 0 0 35
      vertex 40 0 35
    endloop
  endfacet
  facet normal 0 0 1
    outer loop
      vertex 31.3594 2.35497 35
      vertex 16.3906 9.27975 35
      vertex 18.0111 8.34415 35
    endloop
  endfacet
  facet normal 0 0 1
    outer loop
      vertex 10.5983 5.9356 35
      vertex 0 0 35
      vertex 10.5983 4.0644 35
    endloop
  endfacet
  facet normal 0 0 1
    outer loop
      vertex 11.3594 7.64503 35
      vertex 0 0 35
      vertex 10.5983 5.9356 35
    endloop
  endfacet
  facet normal 0 0 1
    outer loop
      vertex 40 40 35
      vertex 0 0 35
      vertex 11.3594 7.64503 35
    endloop
  endfacet
  facet normal 0 0 1
    outer loop
      vertex 14.5296 9.47535 35
      vertex 16.3906 9.27975 35
      vertex 40 40 35
    endloop
  endfacet
  facet normal 0 0 1
    outer loop
      vertex 40 40 35
      vertex 11.3594 7.64503 35
      vertex 12.75 8.89711 35
    endloop
  endfacet
  facet normal 0 0 1
    outer loop
      vertex 36.3906 20.7202 35
      vertex 34.5296 20.5247 35
      vertex 30.5983 5.9356 35
    endloop
  endfacet
  facet normal 0 0 1
    outer loop
      vertex 39.5 5 35
      vertex 39.111 3.16968 35
      vertex 40 0 35
    endloop
  endfacet
  facet normal 0 0 1
    outer loop
      vertex 32.75 1.10289 35
      vertex 19.5 5 35
      vertex 19.111 3.16968 35
    endloop
  endfacet
  facet normal 0 0 1
    outer loop
      vertex 34.5296 0.524651 35
      vertex 18.0111 1.65585 35
      vertex 40 0 35
    endloop
  endfacet
  facet normal 0 0 1
    outer loop
      vertex 36.3906 0.720246 35
      vertex 34.5296 0.524651 35
      vertex 40 0 35
    endloop
  endfacet
  facet normal 0 0 1
    outer loop
      vertex 18.0111 1.65585 35
      vertex 16.3906 0.720246 35
      vertex 40 0 35
    endloop
  endfacet
  facet normal 0 0 1
    outer loop
      vertex 16.3906 0.720246 35
      vertex 14.5296 0.524651 35
      vertex 40 0 35
    endloop
  endfacet
  facet normal 0 0 1
    outer loop
      vertex 12.75 1.10289 35
      vertex 11.3594 2.35497 35
      vertex 0 0 35
    endloop
  endfacet
  facet normal 0 0 1
    outer loop
      vertex 31.3594 2.35497 35
      vertex 18.0111 8.34415 35
      vertex 19.111 6.83031 35
    endloop
  endfacet
  facet normal 0 0 1
    outer loop
      vertex 10.5983 4.0644 35
      vertex 0 0 35
      vertex 11.3594 2.35497 35
    endloop
  endfacet
  facet normal 0 0 1
    outer loop
      vertex 30.5983 5.9356 35
      vertex 16.3906 9.27975 35
      vertex 30.5983 4.0644 35
    endloop
  endfacet
  facet normal 0 0 1
    outer loop
      vertex 30.5983 24.0644 35
      vertex 16.3906 9.27975 35
      vertex 30.5983 5.9356 35
    endloop
  endfacet
  facet normal 0 0 1
    outer loop
      vertex 36.3906 20.7202 35
      vertex 32.75 8.89711 35
      vertex 34.5296 9.47535 35
    endloop
  endfacet
  facet normal 0 0 1
    outer loop
      vertex 38.0111 1.65585 35
      vertex 36.3906 0.720246 35
      vertex 40 0 35
    endloop
  endfacet
  facet normal 0 0 1
    outer loop
      vertex 36.3906 20.7202 35
      vertex 31.3594 7.64503 35
      vertex 32.75 8.89711 35
    endloop
  endfacet
  facet normal 0 0 1
    outer loop
      vertex 38.0111 21.6558 35
      vertex 34.5296 9.47535 35
      vertex 36.3906 9.27975 35
    endloop
  endfacet
  facet normal 0 0 1
    outer loop
      vertex 39.5 25 35
      vertex 38.0111 8.34415 35
      vertex 39.111 6.83031 35
    endloop
  endfacet
  facet normal 0 0 1
    outer loop
      vertex 40 40 35
      vertex 39.5 5 35
      vertex 40 0 35
    endloop
  endfacet
  facet normal 0 0 1
    outer loop
      vertex 40 40 35
      vertex 39.111 6.83031 35
      vertex 39.5 5 35
    endloop
  endfacet
  facet normal 0 0 1
    outer loop
      vertex 34.5296 0.524651 35
      vertex 32.75 1.10289 35
      vertex 19.111 3.16968 35
    endloop
  endfacet
  facet normal 0 0 1
    outer loop
      vertex 31.3594 27.645 35
      vertex 32.75 28.8971 35
      vertex 40 40 35
    endloop
  endfacet
  facet normal 0 0 1
    outer loop
      vertex 14.5296 0.524651 35
      vertex 12.75 1.10289 35
      vertex 0 0 35
    endloop
  endfacet
  facet normal 0 0 1
    outer loop
      vertex 32.75 1.10289 35
      vertex 31.3594 2.35497 35
      vertex 19.5 5 35
    endloop
  endfacet
  facet normal 0 0 1
    outer loop
      vertex 34.5296 20.5247 35
      vertex 32.75 21.1029 35
      vertex 30.5983 5.9356 35
    endloop
  endfacet
  facet normal 0 0 1
    outer loop
      vertex 39.111 3.16968 35
      vertex 38.0111 1.65585 35
      vertex 40 0 35
    endloop
  endfacet
  facet normal 0 0 1
    outer loop
      vertex 19.111 6.83031 35
      vertex 19.5 5 35
      vertex 31.3594 2.35497 35
    endloop
  endfacet
  facet normal 0 0 1
    outer loop
      vertex 31.3594 22.355 35
      vertex 30.5983 24.0644 35
      vertex 30.5983 5.9356 35
    endloop
  endfacet
  facet normal 0 0 1
    outer loop
      vertex 30.5983 25.9356 35
      vertex 16.3906 9.27975 35
      vertex 30.5983 24.0644 35
    endloop
  endfacet
  facet normal 0 0 1
    outer loop
      vertex 31.3594 27.645 35
      vertex 16.3906 9.27975 35
      vertex 30.5983 25.9356 35
    endloop
  endfacet
  facet normal 0 0 1
    outer loop
      vertex 32.75 28.8971 35
      vertex 34.5296 29.4753 35
      vertex 40 40 35
    endloop
  endfacet
  facet normal 0 0 1
    outer loop
      vertex 40 40 35
      vertex 16.3906 9.27975 35
      vertex 31.3594 27.645 35
    endloop
  endfacet
  facet normal 0 0 1
    outer loop
      vertex 40 40 35
      vertex 34.5296 29.4753 35
      vertex 36.3906 29.2798 35
    endloop
  endfacet
  facet normal 0 0 1
    outer loop
      vertex 39.111 26.8303 35
      vertex 39.5 25 35
      vertex 40 40 35
    endloop
  endfacet
  facet normal 0 0 1
    outer loop
      vertex 36.3906 20.7202 35
      vertex 30.5983 5.9356 35
      vertex 31.3594 7.64503 35
    endloop
  endfacet
  facet normal 0 0 1
    outer loop
      vertex 39.111 23.1697 35
      vertex 38.0111 21.6558 35
      vertex 36.3906 9.27975 35
    endloop
  endfacet
  facet normal 0 0 1
    outer loop
      vertex 40 40 35
      vertex 39.5 25 35
      vertex 39.111 6.83031 35
    endloop
  endfacet
  facet normal 0 0 1
    outer loop
      vertex 39.111 23.1697 35
      vertex 38.0111 8.34415 35
      vertex 39.5 25 35
    endloop
  endfacet
  facet normal 0 0 1
    outer loop
      vertex 39.111 23.1697 35
      vertex 36.3906 9.27975 35
      vertex 38.0111 8.34415 35
    endloop
  endfacet
  facet normal 0 0 1
    outer loop
      vertex 38.0111 21.6558 35
      vertex 36.3906 20.7202 35
      vertex 34.5296 9.47535 35
    endloop
  endfacet
  facet normal 0 0 1
    outer loop
      vertex 38.0111 28.3442 35
      vertex 39.111 26.8303 35
      vertex 40 40 35
    endloop
  endfacet
  facet normal 0 0 1
    outer loop
      vertex 32.75 21.1029 35
      vertex 31.3594 22.355 35
      vertex 30.5983 5.9356 35
    endloop
  endfacet
  facet normal 0 0 1
    outer loop
      vertex 12.75 8.89711 35
      vertex 14.5296 9.47535 35
      vertex 40 40 35
    endloop
  endfacet
  facet normal 0 0 1
    outer loop
      vertex 19.111 3.16968 35
      vertex 18.0111 1.65585 35
      vertex 34.5296 0.524651 35
    endloop
  endfacet
  facet normal 0 0 1
    outer loop
      vertex 31.3594 2.35497 35
      vertex 30.5983 4.0644 35
      vertex 16.3906 9.27975 35
    endloop
  endfacet
  facet normal 0 0 1
    outer loop
      vertex 36.3906 29.2798 35
      vertex 38.0111 28.3442 35
      vertex 40 40 35
    endloop
  endfacet
  facet normal 0 1 0
    outer loop
      vertex 30 10 29
      vertex 30 10 0
      vertex 10 10 29
    endloop
  endfacet
  facet normal 0 1 0
    outer loop
      vertex 10 10 29
      vertex 30 10 0
      vertex 10 10 0
    endloop
  endfacet
  facet normal 0 0 -1
    outer loop
      vertex 30 30 29
      vertex 30 10 29
      vertex 10 10 29
    endloop
  endfacet
  facet normal -1 0 0
    outer loop
      vertex 30 30 29
      vertex 30 30 0
      vertex 30 10 29
    endloop
  endfacet
  facet normal -1 0 0
    outer loop
      vertex 30 10 29
      vertex 30 30 0
      vertex 30 10 0
    endloop
  endfacet
  facet normal 1 0 0
    outer loop
      vertex 40 0 35
      vertex 40 0 0
      vertex 40 40 0
    endloop
  endfacet
  facet normal 1 0 0
    outer loop
      vertex 40 40 35
      vertex 40 0 35
      vertex 40 40 0
    endloop
  endfacet
  facet normal 0.309018 -0.951056 0
    outer loop
      vertex 15.309 5.95106 0
      vertex 15.309 5.95106 7
      vertex 14.191 5.58778 7
    endloop
  endfacet
  facet normal 0.309018 -0.951056 0
    outer loop
      vertex 14.191 5.58778 0
      vertex 15.309 5.95106 0
      vertex 14.191 5.58778 7
    endloop
  endfacet
  facet normal 1 0 0
    outer loop
      vertex 14.191 5.58778 0
      vertex 14.191 5.58778 7
      vertex 14.191 4.41221 7
    endloop
  endfacet
  facet normal 1 0 0
    outer loop
      vertex 14.191 4.41221 0
      vertex 14.191 5.58778 0
      vertex 14.191 4.41221 7
    endloop
  endfacet
  facet normal -0.809017 -0.587785 0
    outer loop
      vertex 16 5 7
      vertex 15.309 5.95106 7
      vertex 16 5 0
    endloop
  endfacet
  facet normal -0.809017 -0.587785 0
    outer loop
      vertex 16 5 0
      vertex 15.309 5.95106 7
      vertex 15.309 5.95106 0
    endloop
  endfacet
  facet normal -0.809017 0.587785 0
    outer loop
      vertex 16 5 7
      vertex 16 5 0
      vertex 15.309 4.04894 7
    endloop
  endfacet
  facet normal -0.809017 0.587785 0
    outer loop
      vertex 15.309 4.04894 7
      vertex 16 5 0
      vertex 15.309 4.04894 0
    endloop
  endfacet
  facet normal 0.309018 0.951056 0
    outer loop
      vertex 15.309 4.04894 7
      vertex 15.309 4.04894 0
      vertex 14.191 4.41221 7
    endloop
  endfacet
  facet normal 0.309018 0.951056 0
    outer loop
      vertex 14.191 4.41221 7
      vertex 15.309 4.04894 0
      vertex 14.191 4.41221 0
    endloop
  endfacet
  facet normal 0.309018 -0.951056 0
    outer loop
      vertex 35.309 5.95106 0
      vertex 35.309 5.95106 7
      vertex 34.191 5.58778 7
    endloop
  endfacet
  facet normal 0.309018 -0.951056 0
    outer loop
      vertex 34.191 5.58778 0
      vertex 35.309 5.95106 0
      vertex 34.191 5.58778 7
    endloop
  endfacet
  facet normal 1 0 0
    outer loop
      vertex 34.191 5.58778 0
      vertex 34.191 5.58778 7
      vertex 34.191 4.41221 7
    endloop
  endfacet
  facet normal 1 0 0
    outer loop
      vertex 34.191 4.41221 0
      vertex 34.191 5.58778 0
      vertex 34.191 4.41221 7
    endloop
  endfacet
  facet normal -0.809017 -0.587785 0
    outer loop
      vertex 36 5 7
      vertex 35.309 5.95106 7
      vertex 36 5 0
    endloop
  endfacet
  facet normal -0.809017 -0.587785 0
    outer loop
      vertex 36 5 0
      vertex 35.309 5.95106 7
      vertex 35.309 5.95106 0
    endloop
  endfacet
  facet normal -0.809017 0.587785 0
    outer loop
      vertex 36 5 7
      vertex 36 5 0
      vertex 35.309 4.04894 7
    endloop
  endfacet
  facet normal -0.809017 0.587785 0
    outer loop
      vertex 35.309 4.04894 7
      vertex 36 5 0
      vertex 35.309 4.04894 0
    endloop
  endfacet
  facet normal 0.309018 0.951056 0
    outer loop
      vertex 35.309 4.04894 7
      vertex 35.309 4.04894 0
      vertex 34.191 4.41221 7
    endloop
  endfacet
  facet normal 0.309018 0.951056 0
    outer loop
      vertex 34.191 4.41221 7
      vertex 35.309 4.04894 0
      vertex 34.191 4.41221 0
    endloop
  endfacet
  facet normal 0.309018 -0.951056 0
    outer loop
      vertex 35.309 25.9511 0
      vertex 35.309 25.9511 7
      vertex 34.191 25.5878 7
    endloop
  endfacet
  facet normal 0.309018 -0.951056 0
    outer loop
      vertex 34.191 25.5878 0
      vertex 35.309 25.9511 0
      vertex 34.191 25.5878 7
    endloop
  endfacet
  facet normal 1 0 0
    outer loop
      vertex 34.191 25.5878 0
      vertex 34.191 25.5878 7
      vertex 34.191 24.4122 7
    endloop
  endfacet
  facet normal 1 0 0
    outer loop
      vertex 34.191 24.4122 0
      vertex 34.191 25.5878 0
      vertex 34.191 24.4122 7
    endloop
  endfacet
  facet normal -0.809017 -0.587785 0
    outer loop
      vertex 36 25 7
      vertex 35.309 25.9511 7
      vertex 36 25 0
    endloop
  endfacet
  facet normal -0.809017 -0.587785 0
    outer loop
      vertex 36 25 0
      vertex 35.309 25.9511 7
      vertex 35.309 25.9511 0
    endloop
  endfacet
  facet normal -0.809017 0.587785 0
    outer loop
      vertex 36 25 7
      vertex 36 25 0
      vertex 35.309 24.0489 7
    endloop
  endfacet
  facet normal -0.809017 0.587785 0
    outer loop
      vertex 35.309 24.0489 7
      vertex 36 25 0
      vertex 35.309 24.0489 0
    endloop
  endfacet
  facet normal 0.309018 0.951056 0
    outer loop
      vertex 35.309 24.0489 7
      vertex 35.309 24.0489 0
      vertex 34.191 24.4122 7
    endloop
  endfacet
  facet normal 0.309018 0.951056 0
    outer loop
      vertex 34.191 24.4122 7
      vertex 35.309 24.0489 0
      vertex 34.191 24.4122 0
    endloop
  endfacet
  facet normal 1 0 0
    outer loop
      vertex 10.5983 5.9356 7
      vertex 10.5983 5.9356 35
      vertex 10.5983 4.0644 35
    endloop
  endfacet
  facet normal 1 0 0
    outer loop
      vertex 10.5983 4.0644 7
      vertex 10.5983 5.9356 7
      vertex 10.5983 4.0644 35
    endloop
  endfacet
  facet normal 0.913545 0.406737 0
    outer loop
      vertex 10.5983 4.0644 35
      vertex 11.3594 2.35497 35
      vertex 11.3594 2.35497 7
    endloop
  endfacet
  facet normal 0.913545 0.406737 0
    outer loop
      vertex 10.5983 4.0644 7
      vertex 10.5983 4.0644 35
      vertex 11.3594 2.35497 7
    endloop
  endfacet
  facet normal 0.669131 0.743145 0
    outer loop
      vertex 12.75 1.10289 35
      vertex 12.75 1.10289 7
      vertex 11.3594 2.35497 35
    endloop
  endfacet
  facet normal 0.669131 0.743145 0
    outer loop
      vertex 11.3594 2.35497 35
      vertex 12.75 1.10289 7
      vertex 11.3594 2.35497 7
    endloop
  endfacet
  facet normal 0.309017 0.951056 0
    outer loop
      vertex 14.5296 0.524651 35
      vertex 14.5296 0.524651 7
      vertex 12.75 1.10289 35
    endloop
  endfacet
  facet normal 0.309017 0.951056 0
    outer loop
      vertex 12.75 1.10289 35
      vertex 14.5296 0.524651 7
      vertex 12.75 1.10289 7
    endloop
  endfacet
  facet normal -0.104529 0.994522 0
    outer loop
      vertex 16.3906 0.720246 35
      vertex 16.3906 0.720246 7
      vertex 14.5296 0.524651 35
    endloop
  endfacet
  facet normal -0.104529 0.994522 0
    outer loop
      vertex 14.5296 0.524651 35
      vertex 16.3906 0.720246 7
      vertex 14.5296 0.524651 7
    endloop
  endfacet
  facet normal -0.5 0.866026 0
    outer loop
      vertex 18.0111 1.65585 35
      vertex 18.0111 1.65585 7
      vertex 16.3906 0.720246 35
    endloop
  endfacet
  facet normal -0.5 0.866026 0
    outer loop
      vertex 16.3906 0.720246 35
      vertex 18.0111 1.65585 7
      vertex 16.3906 0.720246 7
    endloop
  endfacet
  facet normal -0.809017 0.587785 0
    outer loop
      vertex 19.111 3.16968 35
      vertex 19.111 3.16968 7
      vertex 18.0111 1.65585 35
    endloop
  endfacet
  facet normal -0.809017 0.587785 0
    outer loop
      vertex 18.0111 1.65585 35
      vertex 19.111 3.16968 7
      vertex 18.0111 1.65585 7
    endloop
  endfacet
  facet normal -0.978148 0.207911 0
    outer loop
      vertex 19.5 5 35
      vertex 19.5 5 7
      vertex 19.111 3.16968 35
    endloop
  endfacet
  facet normal -0.978148 0.207911 0
    outer loop
      vertex 19.111 3.16968 35
      vertex 19.5 5 7
      vertex 19.111 3.16968 7
    endloop
  endfacet
  facet normal -0.978148 -0.207911 0
    outer loop
      vertex 19.5 5 35
      vertex 19.111 6.83031 35
      vertex 19.5 5 7
    endloop
  endfacet
  facet normal -0.978148 -0.207911 0
    outer loop
      vertex 19.5 5 7
      vertex 19.111 6.83031 35
      vertex 19.111 6.83031 7
    endloop
  endfacet
  facet normal -0.809017 -0.587785 0
    outer loop
      vertex 19.111 6.83031 35
      vertex 18.0111 8.34415 35
      vertex 19.111 6.83031 7
    endloop
  endfacet
  facet normal -0.809017 -0.587785 0
    outer loop
      vertex 19.111 6.83031 7
      vertex 18.0111 8.34415 35
      vertex 18.0111 8.34415 7
    endloop
  endfacet
  facet normal -0.5 -0.866026 0
    outer loop
      vertex 18.0111 8.34415 7
      vertex 18.0111 8.34415 35
      vertex 16.3906 9.27975 35
    endloop
  endfacet
  facet normal -0.5 -0.866026 0
    outer loop
      vertex 16.3906 9.27975 7
      vertex 18.0111 8.34415 7
      vertex 16.3906 9.27975 35
    endloop
  endfacet
  facet normal -0.104529 -0.994522 0
    outer loop
      vertex 16.3906 9.27975 7
      vertex 16.3906 9.27975 35
      vertex 14.5296 9.47535 35
    endloop
  endfacet
  facet normal -0.104529 -0.994522 0
    outer loop
      vertex 14.5296 9.47535 7
      vertex 16.3906 9.27975 7
      vertex 14.5296 9.47535 35
    endloop
  endfacet
  facet normal 0.309017 -0.951056 0
    outer loop
      vertex 14.5296 9.47535 7
      vertex 14.5296 9.47535 35
      vertex 12.75 8.89711 35
    endloop
  endfacet
  facet normal 0.309017 -0.951056 0
    outer loop
      vertex 12.75 8.89711 7
      vertex 14.5296 9.47535 7
      vertex 12.75 8.89711 35
    endloop
  endfacet
  facet normal 0.669131 -0.743145 0
    outer loop
      vertex 12.75 8.89711 7
      vertex 12.75 8.89711 35
      vertex 11.3594 7.64503 35
    endloop
  endfacet
  facet normal 0.669131 -0.743145 0
    outer loop
      vertex 11.3594 7.64503 7
      vertex 12.75 8.89711 7
      vertex 11.3594 7.64503 35
    endloop
  endfacet
  facet normal 0.913545 -0.406737 0
    outer loop
      vertex 11.3594 7.64503 7
      vertex 11.3594 7.64503 35
      vertex 10.5983 5.9356 35
    endloop
  endfacet
  facet normal 0.913545 -0.406737 0
    outer loop
      vertex 10.5983 5.9356 7
      vertex 11.3594 7.64503 7
      vertex 10.5983 5.9356 35
    endloop
  endfacet
  facet normal 0.913545 0.406737 0
    outer loop
      vertex 30.5983 4.0644 35
      vertex 31.3594 2.35497 35
      vertex 31.3594 2.35497 7
    endloop
  endfacet
  facet normal 0.913545 0.406737 0
    outer loop
      vertex 30.5983 4.0644 7
      vertex 30.5983 4.0644 35
      vertex 31.3594 2.35497 7
    endloop
  endfacet
  facet normal 1 0 0
    outer loop
      vertex 30.5983 5.9356 7
      vertex 30.5983 5.9356 35
      vertex 30.5983 4.0644 35
    endloop
  endfacet
  facet normal 1 0 0
    outer loop
      vertex 30.5983 4.0644 7
      vertex 30.5983 5.9356 7
      vertex 30.5983 4.0644 35
    endloop
  endfacet
  facet normal 0.669131 0.743145 0
    outer loop
      vertex 32.75 1.10289 35
      vertex 32.75 1.10289 7
      vertex 31.3594 2.35497 35
    endloop
  endfacet
  facet normal 0.669131 0.743145 0
    outer loop
      vertex 31.3594 2.35497 35
      vertex 32.75 1.10289 7
      vertex 31.3594 2.35497 7
    endloop
  endfacet
  facet normal 0.309017 0.951056 0
    outer loop
      vertex 34.5296 0.524651 35
      vertex 34.5296 0.524651 7
      vertex 32.75 1.10289 35
    endloop
  endfacet
  facet normal 0.309017 0.951056 0
    outer loop
      vertex 32.75 1.10289 35
      vertex 34.5296 0.524651 7
      vertex 32.75 1.10289 7
    endloop
  endfacet
  facet normal -0.104529 0.994522 0
    outer loop
      vertex 36.3906 0.720246 35
      vertex 36.3906 0.720246 7
      vertex 34.5296 0.524651 35
    endloop
  endfacet
  facet normal -0.104529 0.994522 0
    outer loop
      vertex 34.5296 0.524651 35
      vertex 36.3906 0.720246 7
      vertex 34.5296 0.524651 7
    endloop
  endfacet
  facet normal -0.5 0.866026 0
    outer loop
      vertex 38.0111 1.65585 35
      vertex 38.0111 1.65585 7
      vertex 36.3906 0.720246 35
    endloop
  endfacet
  facet normal -0.5 0.866026 0
    outer loop
      vertex 36.3906 0.720246 35
      vertex 38.0111 1.65585 7
      vertex 36.3906 0.720246 7
    endloop
  endfacet
  facet normal -0.809017 0.587785 0
    outer loop
      vertex 39.111 3.16968 35
      vertex 39.111 3.16968 7
      vertex 38.0111 1.65585 35
    endloop
  endfacet
  facet normal -0.809017 0.587785 0
    outer loop
      vertex 38.0111 1.65585 35
      vertex 39.111 3.16968 7
      vertex 38.0111 1.65585 7
    endloop
  endfacet
  facet normal -0.978148 0.207911 0
    outer loop
      vertex 39.5 5 35
      vertex 39.5 5 7
      vertex 39.111 3.16968 35
    endloop
  endfacet
  facet normal -0.978148 0.207911 0
    outer loop
      vertex 39.111 3.16968 35
      vertex 39.5 5 7
      vertex 39.111 3.16968 7
    endloop
  endfacet
  facet normal -0.978148 -0.207911 0
    outer loop
      vertex 39.5 5 35
      vertex 39.111 6.83031 35
      vertex 39.5 5 7
    endloop
  endfacet
  facet normal -0.978148 -0.207911 0
    outer loop
      vertex 39.5 5 7
      vertex 39.111 6.83031 35
      vertex 39.111 6.83031 7
    endloop
  endfacet
  facet normal -0.809017 -0.587785 0
    outer loop
      vertex 39.111 6.83031 35
      vertex 38.0111 8.34415 35
      vertex 39.111 6.83031 7
    endloop
  endfacet
  facet normal -0.809017 -0.587785 0
    outer loop
      vertex 39.111 6.83031 7
      vertex 38.0111 8.34415 35
      vertex 38.0111 8.34415 7
    endloop
  endfacet
  facet normal -0.5 -0.866026 0
    outer loop
      vertex 38.0111 8.34415 7
      vertex 38.0111 8.34415 35
      vertex 36.3906 9.27975 35
    endloop
  endfacet
  facet normal -0.5 -0.866026 0
    outer loop
      vertex 36.3906 9.27975 7
      vertex 38.0111 8.34415 7
      vertex 36.3906 9.27975 35
    endloop
  endfacet
  facet normal -0.104529 -0.994522 0
    outer loop
      vertex 36.3906 9.27975 7
      vertex 36.3906 9.27975 35
      vertex 34.5296 9.47535 35
    endloop
  endfacet
  facet normal -0.104529 -0.994522 0
    outer loop
      vertex 34.5296 9.47535 7
      vertex 36.3906 9.27975 7
      vertex 34.5296 9.47535 35
    endloop
  endfacet
  facet normal 0.309017 -0.951056 0
    outer loop
      vertex 34.5296 9.47535 7
      vertex 34.5296 9.47535 35
      vertex 32.75 8.89711 35
    endloop
  endfacet
  facet normal 0.309017 -0.951056 0
    outer loop
      vertex 32.75 8.89711 7
      vertex 34.5296 9.47535 7
      vertex 32.75 8.89711 35
    endloop
  endfacet
  facet normal 0.669131 -0.743145 0
    outer loop
      vertex 32.75 8.89711 7
      vertex 32.75 8.89711 35
      vertex 31.3594 7.64503 35
    endloop
  endfacet
  facet normal 0.669131 -0.743145 0
    outer loop
      vertex 31.3594 7.64503 7
      vertex 32.75 8.89711 7
      vertex 31.3594 7.64503 35
    endloop
  endfacet
  facet normal 0.913545 -0.406737 0
    outer loop
      vertex 31.3594 7.64503 7
      vertex 31.3594 7.64503 35
      vertex 30.5983 5.9356 35
    endloop
  endfacet
  facet normal 0.913545 -0.406737 0
    outer loop
      vertex 30.5983 5.9356 7
      vertex 31.3594 7.64503 7
      vertex 30.5983 5.9356 35
    endloop
  endfacet
  facet normal 1 0 0
    outer loop
      vertex 30.5983 25.9356 7
      vertex 30.5983 25.9356 35
      vertex 30.5983 24.0644 35
    endloop
  endfacet
  facet normal 1 0 0
    outer loop
      vertex 30.5983 24.0644 7
      vertex 30.5983 25.9356 7
      vertex 30.5983 24.0644 35
    endloop
  endfacet
  facet normal 0.913545 0.406737 0
    outer loop
      vertex 30.5983 24.0644 35
      vertex 31.3594 22.355 35
      vertex 31.3594 22.355 7
    endloop
  endfacet
  facet normal 0.913545 0.406737 0
    outer loop
      vertex 30.5983 24.0644 7
      vertex 30.5983 24.0644 35
      vertex 31.3594 22.355 7
    endloop
  endfacet
  facet normal 0.669131 0.743145 0
    outer loop
      vertex 32.75 21.1029 35
      vertex 32.75 21.1029 7
      vertex 31.3594 22.355 35
    endloop
  endfacet
  facet normal 0.669131 0.743145 0
    outer loop
      vertex 31.3594 22.355 35
      vertex 32.75 21.1029 7
      vertex 31.3594 22.355 7
    endloop
  endfacet
  facet normal 0.309017 0.951056 0
    outer loop
      vertex 34.5296 20.5247 35
      vertex 34.5296 20.5247 7
      vertex 32.75 21.1029 35
    endloop
  endfacet
  facet normal 0.309017 0.951056 0
    outer loop
      vertex 32.75 21.1029 35
      vertex 34.5296 20.5247 7
      vertex 32.75 21.1029 7
    endloop
  endfacet
  facet normal -0.104529 0.994522 0
    outer loop
      vertex 36.3906 20.7202 35
      vertex 36.3906 20.7202 7
      vertex 34.5296 20.5247 35
    endloop
  endfacet
  facet normal -0.104529 0.994522 0
    outer loop
      vertex 34.5296 20.5247 35
      vertex 36.3906 20.7202 7
      vertex 34.5296 20.5247 7
    endloop
  endfacet
  facet normal -0.5 0.866026 0
    outer loop
      vertex 38.0111 21.6558 35
      vertex 38.0111 21.6558 7
      vertex 36.3906 20.7202 35
    endloop
  endfacet
  facet normal -0.5 0.866026 0
    outer loop
      vertex 36.3906 20.7202 35
      vertex 38.0111 21.6558 7
      vertex 36.3906 20.7202 7
    endloop
  endfacet
  facet normal -0.809017 0.587785 0
    outer loop
      vertex 39.111 23.1697 35
      vertex 39.111 23.1697 7
      vertex 38.0111 21.6558 35
    endloop
  endfacet
  facet normal -0.809017 0.587785 0
    outer loop
      vertex 38.0111 21.6558 35
      vertex 39.111 23.1697 7
      vertex 38.0111 21.6558 7
    endloop
  endfacet
  facet normal -0.978148 0.207911 0
    outer loop
      vertex 39.5 25 35
      vertex 39.5 25 7
      vertex 39.111 23.1697 35
    endloop
  endfacet
  facet normal -0.978148 0.207911 0
    outer loop
      vertex 39.111 23.1697 35
      vertex 39.5 25 7
      vertex 39.111 23.1697 7
    endloop
  endfacet
  facet normal -0.978148 -0.207911 0
    outer loop
      vertex 39.5 25 35
      vertex 39.111 26.8303 35
      vertex 39.5 25 7
    endloop
  endfacet
  facet normal -0.978148 -0.207911 0
    outer loop
      vertex 39.5 25 7
      vertex 39.111 26.8303 35
      vertex 39.111 26.8303 7
    endloop
  endfacet
  facet normal -0.809017 -0.587785 0
    outer loop
      vertex 39.111 26.8303 35
      vertex 38.0111 28.3442 35
      vertex 39.111 26.8303 7
    endloop
  endfacet
  facet normal -0.809017 -0.587785 0
    outer loop
      vertex 39.111 26.8303 7
      vertex 38.0111 28.3442 35
      vertex 38.0111 28.3442 7
    endloop
  endfacet
  facet normal -0.5 -0.866026 0
    outer loop
      vertex 38.0111 28.3442 7
      vertex 38.0111 28.3442 35
      vertex 36.3906 29.2798 35
    endloop
  endfacet
  facet normal -0.5 -0.866026 0
    outer loop
      vertex 36.3906 29.2798 7
      vertex 38.0111 28.3442 7
      vertex 36.3906 29.2798 35
    endloop
  endfacet
  facet normal -0.104529 -0.994522 0
    outer loop
      vertex 36.3906 29.2798 7
      vertex 36.3906 29.2798 35
      vertex 34.5296 29.4753 35
    endloop
  endfacet
  facet normal -0.104529 -0.994522 0
    outer loop
      vertex 34.5296 29.4753 7
      vertex 36.3906 29.2798 7
      vertex 34.5296 29.4753 35
    endloop
  endfacet
  facet normal 0.309017 -0.951056 0
    outer loop
      vertex 34.5296 29.4753 7
      vertex 34.5296 29.4753 35
      vertex 32.75 28.8971 35
    endloop
  endfacet
  facet normal 0.309017 -0.951056 0
    outer loop
      vertex 32.75 28.8971 7
      vertex 34.5296 29.4753 7
      vertex 32.75 28.8971 35
    endloop
  endfacet
  facet normal 0.669131 -0.743145 0
    outer loop
      vertex 32.75 28.8971 7
      vertex 32.75 28.8971 35
      vertex 31.3594 27.645 35
    endloop
  endfacet
  facet normal 0.669131 -0.743145 0
    outer loop
      vertex 31.3594 27.645 7
      vertex 32.75 28.8971 7
      vertex 31.3594 27.645 35
    endloop
  endfacet
  facet normal 0.913545 -0.406737 0
    outer loop
      vertex 31.3594 27.645 7
      vertex 31.3594 27.645 35
      vertex 30.5983 25.9356 35
    endloop
  endfacet
  facet normal 0.913545 -0.406737 0
    outer loop
      vertex 30.5983 25.9356 7
      vertex 31.3594 27.645 7
      vertex 30.5983 25.9356 35
    endloop
  endfacet
  facet normal 0 0 1
    outer loop
      vertex 11.3594 2.35497 7
      vertex 12.75 1.10289 7
      vertex 14.5296 0.524651 7
    endloop
  endfacet
  facet normal 0 0 1
    outer loop
      vertex 18.0111 1.65585 7
      vertex 11.3594 2.35497 7
      vertex 16.3906 0.720246 7
    endloop
  endfacet
  facet normal 0 0 1
    outer loop
      vertex 16.3906 0.720246 7
      vertex 11.3594 2.35497 7
      vertex 14.5296 0.524651 7
    endloop
  endfacet
  facet normal 0 0 1
    outer loop
      vertex 19.111 3.16968 7
      vertex 11.3594 2.35497 7
      vertex 18.0111 1.65585 7
    endloop
  endfacet
  facet normal 0 0 1
    outer loop
      vertex 19.5 5 7
      vertex 11.3594 2.35497 7
      vertex 19.111 3.16968 7
    endloop
  endfacet
  facet normal 0 0 1
    outer loop
      vertex 15.309 4.04894 7
      vertex 11.3594 2.35497 7
      vertex 19.5 5 7
    endloop
  endfacet
  facet normal 0 0 1
    outer loop
      vertex 15.309 4.04894 7
      vertex 14.191 4.41221 7
      vertex 11.3594 2.35497 7
    endloop
  endfacet
  facet normal 0 0 1
    outer loop
      vertex 14.5296 9.47535 7
      vertex 11.3594 2.35497 7
      vertex 16.3906 9.27975 7
    endloop
  endfacet
  facet normal 0 0 1
    outer loop
      vertex 12.75 8.89711 7
      vertex 11.3594 2.35497 7
      vertex 14.5296 9.47535 7
    endloop
  endfacet
  facet normal 0 0 1
    outer loop
      vertex 11.3594 7.64503 7
      vertex 11.3594 2.35497 7
      vertex 12.75 8.89711 7
    endloop
  endfacet
  facet normal 0 0 1
    outer loop
      vertex 10.5983 5.9356 7
      vertex 11.3594 2.35497 7
      vertex 11.3594 7.64503 7
    endloop
  endfacet
  facet normal 0 0 1
    outer loop
      vertex 10.5983 4.0644 7
      vertex 11.3594 2.35497 7
      vertex 10.5983 5.9356 7
    endloop
  endfacet
  facet normal 0 0 1
    outer loop
      vertex 16.3906 9.27975 7
      vertex 14.191 5.58778 7
      vertex 18.0111 8.34415 7
    endloop
  endfacet
  facet normal 0 0 1
    outer loop
      vertex 16.3906 9.27975 7
      vertex 11.3594 2.35497 7
      vertex 14.191 5.58778 7
    endloop
  endfacet
  facet normal 0 0 1
    outer loop
      vertex 14.191 5.58778 7
      vertex 15.309 5.95106 7
      vertex 18.0111 8.34415 7
    endloop
  endfacet
  facet normal 0 0 1
    outer loop
      vertex 19.111 6.83031 7
      vertex 16 5 7
      vertex 19.5 5 7
    endloop
  endfacet
  facet normal 0 0 1
    outer loop
      vertex 16 5 7
      vertex 15.309 4.04894 7
      vertex 19.5 5 7
    endloop
  endfacet
  facet normal 0 0 1
    outer loop
      vertex 15.309 5.95106 7
      vertex 19.111 6.83031 7
      vertex 18.0111 8.34415 7
    endloop
  endfacet
  facet normal 0 0 1
    outer loop
      vertex 14.191 4.41221 7
      vertex 14.191 5.58778 7
      vertex 11.3594 2.35497 7
    endloop
  endfacet
  facet normal 0 0 1
    outer loop
      vertex 15.309 5.95106 7
      vertex 16 5 7
      vertex 19.111 6.83031 7
    endloop
  endfacet
  facet normal 0 0 1
    outer loop
      vertex 31.3594 2.35497 7
      vertex 32.75 1.10289 7
      vertex 34.5296 0.524651 7
    endloop
  endfacet
  facet normal 0 0 1
    outer loop
      vertex 38.0111 1.65585 7
      vertex 31.3594 2.35497 7
      vertex 36.3906 0.720246 7
    endloop
  endfacet
  facet normal 0 0 1
    outer loop
      vertex 36.3906 0.720246 7
      vertex 31.3594 2.35497 7
      vertex 34.5296 0.524651 7
    endloop
  endfacet
  facet normal 0 0 1
    outer loop
      vertex 39.111 3.16968 7
      vertex 31.3594 2.35497 7
      vertex 38.0111 1.65585 7
    endloop
  endfacet
  facet normal 0 0 1
    outer loop
      vertex 39.5 5 7
      vertex 31.3594 2.35497 7
      vertex 39.111 3.16968 7
    endloop
  endfacet
  facet normal 0 0 1
    outer loop
      vertex 35.309 4.04894 7
      vertex 31.3594 2.35497 7
      vertex 39.5 5 7
    endloop
  endfacet
  facet normal 0 0 1
    outer loop
      vertex 35.309 4.04894 7
      vertex 34.191 4.41221 7
      vertex 31.3594 2.35497 7
    endloop
  endfacet
  facet normal 0 0 1
    outer loop
      vertex 34.5296 9.47535 7
      vertex 31.3594 2.35497 7
      vertex 36.3906 9.27975 7
    endloop
  endfacet
  facet normal 0 0 1
    outer loop
      vertex 32.75 8.89711 7
      vertex 31.3594 2.35497 7
      vertex 34.5296 9.47535 7
    endloop
  endfacet
  facet normal 0 0 1
    outer loop
      vertex 31.3594 7.64503 7
      vertex 31.3594 2.35497 7
      vertex 32.75 8.89711 7
    endloop
  endfacet
  facet normal 0 0 1
    outer loop
      vertex 30.5983 5.9356 7
      vertex 31.3594 2.35497 7
      vertex 31.3594 7.64503 7
    endloop
  endfacet
  facet normal 0 0 1
    outer loop
      vertex 30.5983 4.0644 7
      vertex 31.3594 2.35497 7
      vertex 30.5983 5.9356 7
    endloop
  endfacet
  facet normal 0 0 1
    outer loop
      vertex 36.3906 9.27975 7
      vertex 34.191 5.58778 7
      vertex 38.0111 8.34415 7
    endloop
  endfacet
  facet normal 0 0 1
    outer loop
      vertex 36.3906 9.27975 7
      vertex 31.3594 2.35497 7
      vertex 34.191 5.58778 7
    endloop
  endfacet
  facet normal 0 0 1
    outer loop
      vertex 34.191 5.58778 7
      vertex 35.309 5.95106 7
      vertex 38.0111 8.34415 7
    endloop
  endfacet
  facet normal 0 0 1
    outer loop
      vertex 39.111 6.83031 7
      vertex 36 5 7
      vertex 39.5 5 7
    endloop
  endfacet
  facet normal 0 0 1
    outer loop
      vertex 36 5 7
      vertex 35.309 4.04894 7
      vertex 39.5 5 7
    endloop
  endfacet
  facet normal 0 0 1
    outer loop
      vertex 35.309 5.95106 7
      vertex 39.111 6.83031 7
      vertex 38.0111 8.34415 7
    endloop
  endfacet
  facet normal 0 0 1
    outer loop
      vertex 34.191 4.41221 7
      vertex 34.191 5.58778 7
      vertex 31.3594 2.35497 7
    endloop
  endfacet
  facet normal 0 0 1
    outer loop
      vertex 35.309 5.95106 7
      vertex 36 5 7
      vertex 39.111 6.83031 7
    endloop
  endfacet
  facet normal 0 0 1
    outer loop
      vertex 31.3594 22.355 7
      vertex 32.75 21.1029 7
      vertex 34.5296 20.5247 7
    endloop
  endfacet
  facet normal 0 0 1
    outer loop
      vertex 38.0111 21.6558 7
      vertex 31.3594 22.355 7
      vertex 36.3906 20.7202 7
    endloop
  endfacet
  facet normal 0 0 1
    outer loop
      vertex 36.3906 20.7202 7
      vertex 31.3594 22.355 7
      vertex 34.5296 20.5247 7
    endloop
  endfacet
  facet normal 0 0 1
    outer loop
      vertex 39.111 23.1697 7
      vertex 31.3594 22.355 7
      vertex 38.0111 21.6558 7
    endloop
  endfacet
  facet normal 0 0 1
    outer loop
      vertex 39.5 25 7
      vertex 31.3594 22.355 7
      vertex 39.111 23.1697 7
    endloop
  endfacet
  facet normal 0 0 1
    outer loop
      vertex 35.309 24.0489 7
      vertex 31.3594 22.355 7
      vertex 39.5 25 7
    endloop
  endfacet
  facet normal 0 0 1
    outer loop
      vertex 35.309 24.0489 7
      vertex 34.191 24.4122 7
      vertex 31.3594 22.355 7
    endloop
  endfacet
  facet normal 0 0 1
    outer loop
      vertex 34.5296 29.4753 7
      vertex 31.3594 22.355 7
      vertex 36.3906 29.2798 7
    endloop
  endfacet
  facet normal 0 0 1
    outer loop
      vertex 32.75 28.8971 7
      vertex 31.3594 22.355 7
      vertex 34.5296 29.4753 7
    endloop
  endfacet
  facet normal 0 0 1
    outer loop
      vertex 31.3594 27.645 7
      vertex 31.3594 22.355 7
      vertex 32.75 28.8971 7
    endloop
  endfacet
  facet normal 0 0 1
    outer loop
      vertex 30.5983 25.9356 7
      vertex 31.3594 22.355 7
      vertex 31.3594 27.645 7
    endloop
  endfacet
  facet normal 0 0 1
    outer loop
      vertex 30.5983 24.0644 7
      vertex 31.3594 22.355 7
      vertex 30.5983 25.9356 7
    endloop
  endfacet
  facet normal 0 0 1
    outer loop
      vertex 36.3906 29.2798 7
      vertex 34.191 25.5878 7
      vertex 38.0111 28.3442 7
    endloop
  endfacet
  facet normal 0 0 1
    outer loop
      vertex 36.3906 29.2798 7
      vertex 31.3594 22.355 7
      vertex 34.191 25.5878 7
    endloop
  endfacet
  facet normal 0 0 1
    outer loop
      vertex 34.191 25.5878 7
      vertex 35.309 25.9511 7
      vertex 38.0111 28.3442 7
    endloop
  endfacet
  facet normal 0 0 1
    outer loop
      vertex 39.111 26.8303 7
      vertex 36 25 7
      vertex 39.5 25 7
    endloop
  endfacet
  facet normal 0 0 1
    outer loop
      vertex 36 25 7
      vertex 35.309 24.0489 7
      vertex 39.5 25 7
    endloop
  endfacet
  facet normal 0 0 1
    outer loop
      vertex 35.309 25.9511 7
      vertex 39.111 26.8303 7
      vertex 38.0111 28.3442 7
    endloop
  endfacet
  facet normal 0 0 1
    outer loop
      vertex 34.191 24.4122 7
      vertex 34.191 25.5878 7
      vertex 31.3594 22.355 7
    endloop
  endfacet
  facet normal 0 0 1
    outer loop
      vertex 35.309 25.9511 7
      vertex 36 25 7
      vertex 39.111 26.8303 7
    endloop
  endfacet
endsolid OpenSCAD_Model
